<mxfile host="app.diagrams.net" modified="2022-05-10T13:33:09.307Z" agent="5.0 (Windows NT 10.0; Win64; x64) AppleWebKit/537.36 (KHTML, like Gecko) Chrome/100.0.4896.75 Safari/537.36" etag="072e9iq12JWMb_8JtDst" version="17.5.0" type="github">
  <diagram id="D_EOzAJcXs7magWXyqsy" name="第 1 页">
    <mxGraphModel dx="1422" dy="706" grid="1" gridSize="10" guides="1" tooltips="1" connect="1" arrows="1" fold="1" page="1" pageScale="1" pageWidth="827" pageHeight="1169" math="0" shadow="0">
      <root>
        <mxCell id="0" />
        <mxCell id="1" parent="0" />
        <mxCell id="ID0JFheKa3dJkD5rysL6-3" style="edgeStyle=orthogonalEdgeStyle;rounded=0;orthogonalLoop=1;jettySize=auto;html=1;entryX=0.5;entryY=0;entryDx=0;entryDy=0;fontSize=16;fontFamily=宋体;" edge="1" parent="1" source="ID0JFheKa3dJkD5rysL6-1" target="ID0JFheKa3dJkD5rysL6-2">
          <mxGeometry relative="1" as="geometry" />
        </mxCell>
        <mxCell id="ID0JFheKa3dJkD5rysL6-1" value="开始" style="strokeWidth=1;html=1;shape=mxgraph.flowchart.terminator;whiteSpace=wrap;fontSize=16;sketch=0;fontFamily=宋体;" vertex="1" parent="1">
          <mxGeometry x="354" y="80" width="86" height="40" as="geometry" />
        </mxCell>
        <mxCell id="ID0JFheKa3dJkD5rysL6-5" style="edgeStyle=orthogonalEdgeStyle;rounded=0;orthogonalLoop=1;jettySize=auto;html=1;fontSize=16;fontFamily=宋体;" edge="1" parent="1" source="ID0JFheKa3dJkD5rysL6-2" target="ID0JFheKa3dJkD5rysL6-4">
          <mxGeometry relative="1" as="geometry" />
        </mxCell>
        <mxCell id="ID0JFheKa3dJkD5rysL6-2" value="输入用户名、密码和验证码" style="rounded=0;whiteSpace=wrap;html=1;sketch=0;fontSize=16;strokeWidth=1;fontFamily=宋体;" vertex="1" parent="1">
          <mxGeometry x="291.88" y="170" width="210.25" height="60" as="geometry" />
        </mxCell>
        <mxCell id="ID0JFheKa3dJkD5rysL6-7" value="" style="edgeStyle=orthogonalEdgeStyle;rounded=0;orthogonalLoop=1;jettySize=auto;html=1;fontSize=16;fontFamily=宋体;" edge="1" parent="1" source="ID0JFheKa3dJkD5rysL6-4" target="ID0JFheKa3dJkD5rysL6-6">
          <mxGeometry relative="1" as="geometry" />
        </mxCell>
        <mxCell id="ID0JFheKa3dJkD5rysL6-4" value="点击“登录”按钮" style="rounded=0;whiteSpace=wrap;html=1;sketch=0;fontSize=16;strokeWidth=1;fontFamily=宋体;" vertex="1" parent="1">
          <mxGeometry x="309.75" y="270" width="174.5" height="60" as="geometry" />
        </mxCell>
        <mxCell id="ID0JFheKa3dJkD5rysL6-8" value="N" style="edgeStyle=orthogonalEdgeStyle;rounded=0;orthogonalLoop=1;jettySize=auto;html=1;fontSize=16;fontFamily=宋体;" edge="1" parent="1" source="ID0JFheKa3dJkD5rysL6-6">
          <mxGeometry x="-0.8744" relative="1" as="geometry">
            <mxPoint x="400" y="140" as="targetPoint" />
            <Array as="points">
              <mxPoint x="560" y="410" />
              <mxPoint x="560" y="140" />
            </Array>
            <mxPoint x="1" as="offset" />
          </mxGeometry>
        </mxCell>
        <mxCell id="ID0JFheKa3dJkD5rysL6-10" value="Y" style="edgeStyle=orthogonalEdgeStyle;rounded=0;orthogonalLoop=1;jettySize=auto;html=1;fontFamily=宋体;fontSize=16;" edge="1" parent="1" source="ID0JFheKa3dJkD5rysL6-6" target="ID0JFheKa3dJkD5rysL6-9">
          <mxGeometry relative="1" as="geometry" />
        </mxCell>
        <mxCell id="ID0JFheKa3dJkD5rysL6-6" value="是否通过验证" style="rhombus;whiteSpace=wrap;html=1;fontSize=16;rounded=0;sketch=0;strokeWidth=1;fontFamily=宋体;" vertex="1" parent="1">
          <mxGeometry x="295.5" y="380" width="203" height="60" as="geometry" />
        </mxCell>
        <mxCell id="ID0JFheKa3dJkD5rysL6-12" style="edgeStyle=orthogonalEdgeStyle;rounded=0;orthogonalLoop=1;jettySize=auto;html=1;fontFamily=宋体;fontSize=16;" edge="1" parent="1" source="ID0JFheKa3dJkD5rysL6-9" target="ID0JFheKa3dJkD5rysL6-11">
          <mxGeometry relative="1" as="geometry" />
        </mxCell>
        <mxCell id="ID0JFheKa3dJkD5rysL6-9" value="进入平台" style="whiteSpace=wrap;html=1;fontSize=16;fontFamily=宋体;rounded=0;sketch=0;strokeWidth=1;" vertex="1" parent="1">
          <mxGeometry x="337" y="490" width="120" height="50" as="geometry" />
        </mxCell>
        <mxCell id="ID0JFheKa3dJkD5rysL6-11" value="结束" style="strokeWidth=1;html=1;shape=mxgraph.flowchart.terminator;whiteSpace=wrap;fontSize=16;sketch=0;fontFamily=宋体;" vertex="1" parent="1">
          <mxGeometry x="354" y="565" width="86" height="40" as="geometry" />
        </mxCell>
        <mxCell id="ID0JFheKa3dJkD5rysL6-13" value="平台登录" style="text;html=1;strokeColor=none;fillColor=none;align=center;verticalAlign=middle;whiteSpace=wrap;rounded=0;sketch=0;fontFamily=宋体;fontSize=16;" vertex="1" parent="1">
          <mxGeometry x="359" y="50" width="76" height="30" as="geometry" />
        </mxCell>
        <mxCell id="ID0JFheKa3dJkD5rysL6-14" style="edgeStyle=orthogonalEdgeStyle;rounded=0;orthogonalLoop=1;jettySize=auto;html=1;entryX=0.5;entryY=0;entryDx=0;entryDy=0;fontSize=16;fontFamily=宋体;" edge="1" parent="1" source="ID0JFheKa3dJkD5rysL6-15" target="ID0JFheKa3dJkD5rysL6-17">
          <mxGeometry relative="1" as="geometry" />
        </mxCell>
        <mxCell id="ID0JFheKa3dJkD5rysL6-15" value="开始" style="strokeWidth=1;html=1;shape=mxgraph.flowchart.terminator;whiteSpace=wrap;fontSize=16;sketch=0;fontFamily=宋体;" vertex="1" parent="1">
          <mxGeometry x="682.12" y="80" width="86" height="40" as="geometry" />
        </mxCell>
        <mxCell id="ID0JFheKa3dJkD5rysL6-16" style="edgeStyle=orthogonalEdgeStyle;rounded=0;orthogonalLoop=1;jettySize=auto;html=1;fontSize=16;fontFamily=宋体;" edge="1" parent="1" source="ID0JFheKa3dJkD5rysL6-17" target="ID0JFheKa3dJkD5rysL6-19">
          <mxGeometry relative="1" as="geometry" />
        </mxCell>
        <mxCell id="ID0JFheKa3dJkD5rysL6-17" value="输入对应身份的用户名和密码&lt;br&gt;&lt;font style=&quot;font-size: 12px&quot;&gt;（身份有：学生、教师、管理员）&lt;/font&gt;" style="rounded=0;whiteSpace=wrap;html=1;sketch=0;fontSize=16;strokeWidth=1;fontFamily=宋体;" vertex="1" parent="1">
          <mxGeometry x="614.99" y="170" width="220.25" height="60" as="geometry" />
        </mxCell>
        <mxCell id="ID0JFheKa3dJkD5rysL6-18" value="" style="edgeStyle=orthogonalEdgeStyle;rounded=0;orthogonalLoop=1;jettySize=auto;html=1;fontSize=16;fontFamily=宋体;" edge="1" parent="1" source="ID0JFheKa3dJkD5rysL6-19" target="ID0JFheKa3dJkD5rysL6-22">
          <mxGeometry relative="1" as="geometry" />
        </mxCell>
        <mxCell id="ID0JFheKa3dJkD5rysL6-19" value="点击“登录”按钮" style="rounded=0;whiteSpace=wrap;html=1;sketch=0;fontSize=16;strokeWidth=1;fontFamily=宋体;" vertex="1" parent="1">
          <mxGeometry x="637.87" y="270" width="174.5" height="60" as="geometry" />
        </mxCell>
        <mxCell id="ID0JFheKa3dJkD5rysL6-20" value="N" style="edgeStyle=orthogonalEdgeStyle;rounded=0;orthogonalLoop=1;jettySize=auto;html=1;fontSize=16;fontFamily=宋体;" edge="1" parent="1" source="ID0JFheKa3dJkD5rysL6-22">
          <mxGeometry x="-0.8744" relative="1" as="geometry">
            <mxPoint x="728.12" y="140" as="targetPoint" />
            <Array as="points">
              <mxPoint x="888.12" y="410" />
              <mxPoint x="888.12" y="140" />
            </Array>
            <mxPoint x="1" as="offset" />
          </mxGeometry>
        </mxCell>
        <mxCell id="ID0JFheKa3dJkD5rysL6-21" value="Y" style="edgeStyle=orthogonalEdgeStyle;rounded=0;orthogonalLoop=1;jettySize=auto;html=1;fontFamily=宋体;fontSize=16;" edge="1" parent="1" source="ID0JFheKa3dJkD5rysL6-22" target="ID0JFheKa3dJkD5rysL6-24">
          <mxGeometry relative="1" as="geometry" />
        </mxCell>
        <mxCell id="ID0JFheKa3dJkD5rysL6-22" value="是否通过验证" style="rhombus;whiteSpace=wrap;html=1;fontSize=16;rounded=0;sketch=0;strokeWidth=1;fontFamily=宋体;" vertex="1" parent="1">
          <mxGeometry x="623.62" y="380" width="203" height="60" as="geometry" />
        </mxCell>
        <mxCell id="ID0JFheKa3dJkD5rysL6-23" style="edgeStyle=orthogonalEdgeStyle;rounded=0;orthogonalLoop=1;jettySize=auto;html=1;fontFamily=宋体;fontSize=16;" edge="1" parent="1" source="ID0JFheKa3dJkD5rysL6-24" target="ID0JFheKa3dJkD5rysL6-25">
          <mxGeometry relative="1" as="geometry" />
        </mxCell>
        <mxCell id="ID0JFheKa3dJkD5rysL6-24" value="进入后台" style="whiteSpace=wrap;html=1;fontSize=16;fontFamily=宋体;rounded=0;sketch=0;strokeWidth=1;" vertex="1" parent="1">
          <mxGeometry x="665.12" y="490" width="120" height="50" as="geometry" />
        </mxCell>
        <mxCell id="ID0JFheKa3dJkD5rysL6-25" value="结束" style="strokeWidth=1;html=1;shape=mxgraph.flowchart.terminator;whiteSpace=wrap;fontSize=16;sketch=0;fontFamily=宋体;" vertex="1" parent="1">
          <mxGeometry x="682.12" y="565" width="86" height="40" as="geometry" />
        </mxCell>
        <mxCell id="ID0JFheKa3dJkD5rysL6-26" value="后台登录" style="text;html=1;strokeColor=none;fillColor=none;align=center;verticalAlign=middle;whiteSpace=wrap;rounded=0;sketch=0;fontFamily=宋体;fontSize=16;" vertex="1" parent="1">
          <mxGeometry x="687.12" y="50" width="76" height="30" as="geometry" />
        </mxCell>
      </root>
    </mxGraphModel>
  </diagram>
</mxfile>
